<svg xmlns="http://www.w3.org/2000/svg" viewBox="0 0 152 152" role="img" aria-label="Female avatar 3">
<defs><linearGradient id="b" x1="0" y1="0" x2="1" y2="1"><stop stop-color="#F0EDFF"/><stop offset="1" stop-color="#fff"/></linearGradient><filter id="s"><feDropShadow dx="0" dy="5" stdDeviation="5" flood-opacity=".12"/></filter></defs>
<rect width="152" height="152" rx="38" fill="url(#b)"/>
<circle cx="124" cy="27" r="20" fill="#6D5DFC" opacity=".10"/><circle cx="25" cy="124" r="28" fill="#201611" opacity=".06"/>
<g filter="url(#s)"><path d="M24 152c4-32 23-51 52-51 30 0 49 19 53 51Z" fill="#6D5DFC"/><path d="M63 92h26v22H63z" fill="#8C563A"/><ellipse cx="76" cy="61" rx="31" ry="38" fill="#8C563A"/><g fill="#201611"><circle cx="38" cy="47" r="18"/><circle cx="45" cy="30" r="17"/><circle cx="61" cy="19" r="17"/><circle cx="79" cy="17" r="18"/><circle cx="97" cy="23" r="17"/><circle cx="111" cy="39" r="18"/><circle cx="113" cy="59" r="17"/><circle cx="38" cy="67" r="16"/></g><circle cx="47" cy="70" r="3" fill="#F4C95D"/><circle cx="105" cy="70" r="3" fill="#F4C95D"/>
<ellipse cx="63" cy="61" rx="3" ry="4" fill="#272126"/><ellipse cx="89" cy="61" rx="3" ry="4" fill="#272126"/><path d="M68 77c5 4 11 4 16 0" fill="none" stroke="#8F514B" stroke-width="2.5" stroke-linecap="round"/>
<path d="M54 108c6 9 13 13 22 13 10 0 18-4 23-13" fill="none" stroke="#fff" stroke-opacity=".65" stroke-width="4" stroke-linecap="round"/></g>
</svg>