<svg xmlns="http://www.w3.org/2000/svg" viewBox="0 0 152 152" role="img" aria-label="Male avatar 2">
<defs><linearGradient id="b" x1="0" y1="0" x2="1" y2="1"><stop stop-color="#F0EDFF"/><stop offset="1" stop-color="#fff"/></linearGradient><filter id="s"><feDropShadow dx="0" dy="5" stdDeviation="5" flood-opacity=".12"/></filter></defs>
<rect width="152" height="152" rx="38" fill="url(#b)"/>
<circle cx="124" cy="27" r="20" fill="#5D4EE6" opacity=".10"/><circle cx="25" cy="124" r="28" fill="#161616" opacity=".06"/>
<g filter="url(#s)"><path d="M24 152c4-32 23-51 52-51 30 0 49 19 53 51Z" fill="#5D4EE6"/><path d="M63 92h26v22H63z" fill="#D79B72"/><ellipse cx="76" cy="61" rx="31" ry="38" fill="#D79B72"/><path d="M42 43c4-17 18-27 34-27s30 9 34 27c-9-4-21-7-34-7s-25 3-34 7Z" fill="#161616"/><path d="M42 43h7v16h-8Z" fill="#161616"/><path d="M103 43h7l1 16h-8Z" fill="#161616"/>
<ellipse cx="63" cy="61" rx="3" ry="4" fill="#272126"/><ellipse cx="89" cy="61" rx="3" ry="4" fill="#272126"/><path d="M68 77c5 4 11 4 16 0" fill="none" stroke="#8F514B" stroke-width="2.5" stroke-linecap="round"/><g fill="none" stroke="#34313A" stroke-width="2"><rect x="51" y="56" width="18" height="12" rx="5"/><rect x="83" y="56" width="18" height="12" rx="5"/><path d="M69 61h14"/></g>
<path d="M54 108c6 9 13 13 22 13 10 0 18-4 23-13" fill="none" stroke="#fff" stroke-opacity=".65" stroke-width="4" stroke-linecap="round"/></g>
</svg>