<svg xmlns="http://www.w3.org/2000/svg" viewBox="0 0 152 152" role="img" aria-label="Female avatar 4">
<defs><linearGradient id="b" x1="0" y1="0" x2="1" y2="1"><stop stop-color="#FFF5DD"/><stop offset="1" stop-color="#fff"/></linearGradient><filter id="s"><feDropShadow dx="0" dy="5" stdDeviation="5" flood-opacity=".12"/></filter></defs>
<rect width="152" height="152" rx="38" fill="url(#b)"/>
<circle cx="124" cy="27" r="20" fill="#E29A2D" opacity=".10"/><circle cx="25" cy="124" r="28" fill="#A64D35" opacity=".06"/>
<g filter="url(#s)"><path d="M24 152c4-32 23-51 52-51 30 0 49 19 53 51Z" fill="#E29A2D"/><path d="M63 92h26v22H63z" fill="#F3B88B"/><ellipse cx="76" cy="61" rx="31" ry="38" fill="#F3B88B"/><path d="M35 47c0-22 17-35 41-35 23 0 41 13 41 35v44c-11 7-24 10-41 10-16 0-30-3-41-10V47Z" fill="#A64D35"/><path d="M46 46c4-16 15-24 30-24 16 0 26 9 31 25-11-6-21-9-31-9-11 0-21 3-30 8Z" fill="#A64D35"/><circle cx="47" cy="70" r="3" fill="#F4C95D"/><circle cx="105" cy="70" r="3" fill="#F4C95D"/>
<ellipse cx="63" cy="61" rx="3" ry="4" fill="#272126"/><ellipse cx="89" cy="61" rx="3" ry="4" fill="#272126"/><path d="M68 77c5 4 11 4 16 0" fill="none" stroke="#8F514B" stroke-width="2.5" stroke-linecap="round"/><g fill="none" stroke="#34313A" stroke-width="2"><rect x="51" y="56" width="18" height="12" rx="5"/><rect x="83" y="56" width="18" height="12" rx="5"/><path d="M69 61h14"/></g>
<path d="M54 108c6 9 13 13 22 13 10 0 18-4 23-13" fill="none" stroke="#fff" stroke-opacity=".65" stroke-width="4" stroke-linecap="round"/></g>
</svg>