<svg xmlns="http://www.w3.org/2000/svg" viewBox="0 0 152 152" role="img" aria-label="Male avatar 1">
<defs><linearGradient id="b" x1="0" y1="0" x2="1" y2="1"><stop stop-color="#E9F7F2"/><stop offset="1" stop-color="#fff"/></linearGradient><filter id="s"><feDropShadow dx="0" dy="5" stdDeviation="5" flood-opacity=".12"/></filter></defs>
<rect width="152" height="152" rx="38" fill="url(#b)"/>
<circle cx="124" cy="27" r="20" fill="#2E6B5A" opacity=".10"/><circle cx="25" cy="124" r="28" fill="#2B201C" opacity=".06"/>
<g filter="url(#s)"><path d="M24 152c4-32 23-51 52-51 30 0 49 19 53 51Z" fill="#2E6B5A"/><path d="M63 92h26v22H63z" fill="#F1C6A8"/><ellipse cx="76" cy="61" rx="31" ry="38" fill="#F1C6A8"/><path d="M40 47c2-19 17-30 34-30 15 0 30 8 34 27-10-7-19-9-32-8-14 1-24 5-36 11Z" fill="#2B201C"/>
<ellipse cx="63" cy="61" rx="3" ry="4" fill="#272126"/><ellipse cx="89" cy="61" rx="3" ry="4" fill="#272126"/><path d="M68 77c5 4 11 4 16 0" fill="none" stroke="#8F514B" stroke-width="2.5" stroke-linecap="round"/>
<path d="M54 108c6 9 13 13 22 13 10 0 18-4 23-13" fill="none" stroke="#fff" stroke-opacity=".65" stroke-width="4" stroke-linecap="round"/></g>
</svg>